# xmcd CD database file
#
# Track frame offsets:
#	150
#	32619
#	66605
#	111390
#	134920
#	169667
#	201010
#	218775
#	243082
#	264347
#
# Disc length: 3879 seconds
#
# Revision: 0
# Processed by: cddbd v1.5.1PL0 Copyright (c) Steve Scherf et al.
# Submitted via: CDex 1.51
#
DISCID=970f250a
DTITLE=Cal Arts - Cal Arts Jazz
DYEAR=1998
DGENRE=Jazz
TTITLE0=alvarado
TTITLE1=tenacidal
TTITLE2=in transition
TTITLE3=kindred spirits
TTITLE4=men docino oro
TTITLE5=little sister
TTITLE6=supermarkets at sunrise
TTITLE7=s.e.s.
TTITLE8=gesture #8
TTITLE9=white and green
EXTD=YEAR: 1998
EXTT0=
EXTT1=
EXTT2=
EXTT3=
EXTT4=
EXTT5=
EXTT6=
EXTT7=
EXTT8=
EXTT9=
PLAYORDER=
